<svg width="24" height="24" viewBox="0 0 24 24" fill="none" xmlns="http://www.w3.org/2000/svg">
<path d="M5.34923 9.76498C5.81712 8.34943 6.72009 7.1178 7.92934 6.24578C9.1386 5.37377 10.5924 4.90593 12.0832 4.90899C13.7732 4.90899 15.3012 5.50899 16.5012 6.49099L19.9932 2.99999C17.8652 1.145 15.1382 0 12.0832 0C7.35323 0 3.28124 2.69799 1.32324 6.64999L5.34923 9.76498Z" fill="#EA4335"/>
<path d="M16.1233 18.0128C15.0333 18.7158 13.6493 19.0908 12.0833 19.0908C10.5984 19.0939 9.1501 18.6297 7.94354 17.7642C6.73697 16.8986 5.83325 15.6754 5.3603 14.2678L1.32031 17.3348C2.31156 19.3411 3.84558 21.0292 5.74813 22.2074C7.65068 23.3855 9.8455 24.0065 12.0833 23.9998C15.0163 23.9998 17.8183 22.9568 19.9173 20.9998L16.1243 18.0128H16.1233Z" fill="#34A853"/>
<path d="M19.918 20.9998C22.113 18.9519 23.538 15.9039 23.538 11.9999C23.538 11.2899 23.429 10.5269 23.266 9.81787H12.084V14.4549H18.52C18.203 16.0139 17.35 17.2209 16.125 18.0129L19.918 20.9998Z" fill="#4A90E2"/>
<path d="M5.36109 14.2679C5.11645 13.5368 4.99216 12.7708 4.99309 11.9999C4.99309 11.2179 5.11809 10.4669 5.35009 9.7649L1.3241 6.6499C0.500478 8.31259 0.0759044 10.1444 0.0841008 11.9999C0.0841008 13.9199 0.5291 15.7299 1.3211 17.3349L5.36109 14.2679Z" fill="#FBBC05"/>
</svg>
