<svg width="192" height="182" viewBox="0 0 192 182" fill="none" xmlns="http://www.w3.org/2000/svg">
<path d="M58.1477 153.137C57.8543 153.496 57.9078 154.026 58.2672 154.319C58.6265 154.612 59.1557 154.559 59.4491 154.2L58.1477 153.137ZM144.721 49.7568C145.014 49.3975 144.961 48.8683 144.602 48.5749C144.242 48.2815 143.713 48.335 143.42 48.6943L144.721 49.7568ZM59.4491 154.2L144.721 49.7568L143.42 48.6943L58.1477 153.137L59.4491 154.2Z" fill="white"/>
<path d="M47.3547 162.51C-10.4611 108.078 21.8135 53.2291 47.3548 30.1748C49.6595 64.5641 70.6307 131.885 136.078 166.006C170 154.5 200 87.5 152.253 40" stroke="#FF7B7B" stroke-width="28.1468"/>
<circle cx="47.6786" cy="162.679" r="14.6786" fill="white"/>
<circle cx="151.683" cy="39.6832" r="7.5" stroke="white" stroke-width="14.3664"/>
</svg>
