<svg width="110" height="104" viewBox="0 0 110 104" fill="none" xmlns="http://www.w3.org/2000/svg">
<path d="M33.5832 87.8661C33.416 88.0708 33.4465 88.3723 33.6512 88.5394C33.856 88.7066 34.1575 88.6761 34.3246 88.4714L33.5832 87.8661ZM82.9078 28.9658C83.075 28.761 83.0445 28.4595 82.8398 28.2924C82.635 28.1252 82.3336 28.1557 82.1664 28.3604L82.9078 28.9658ZM34.3246 88.4714L82.9078 28.9658L82.1664 28.3604L33.5832 87.8661L34.3246 88.4714Z" fill="#008484"/>
<path d="M27.4339 93.2058C-5.50629 62.1934 12.882 30.9436 27.434 17.8086C28.7471 37.4017 40.6953 75.7575 77.9835 95.1974C97.3104 88.6422 114.403 50.4693 87.1992 23.4064" stroke="#FF7B7B" stroke-width="16.0365"/>
<circle cx="27.6184" cy="93.302" r="4.27308" fill="#008484" stroke="#008484" stroke-width="8.17998"/>
<circle cx="86.8745" cy="23.226" r="4.27308" fill="#008484" stroke="#008484" stroke-width="8.1852"/>
</svg>
