<svg width="1123" height="554" viewBox="0 0 1123 554" fill="none" xmlns="http://www.w3.org/2000/svg">
<mask id="mask0" mask-type="alpha" maskUnits="userSpaceOnUse" x="14" y="8" width="1098" height="522">
<path d="M824.161 277.493C819.798 421.253 700.122 533.941 556.852 529.193C413.582 524.444 300.979 404.054 305.342 260.297C309.705 116.541 429.381 3.84927 572.652 8.59774C715.922 13.3462 828.524 133.736 824.161 277.493V277.493Z" fill="#FF7B7B"/>
<g style="mix-blend-mode:difference">
<path d="M345.416 104.543C251.952 104.698 171.704 115.166 113.706 134.453C84.6649 144.11 61.2231 155.972 44.495 169.841C27.7703 183.707 17.7745 199.562 15.5716 217.218M345.416 104.543L15.5716 217.218M345.416 104.543V104.554L345.822 104.553C419.107 104.456 500.468 110.656 585.585 123.951C736.905 147.584 871.386 189.044 966.482 236.953C1014.03 260.909 1051.71 286.467 1076.73 312.2C1101.76 337.938 1114.06 363.793 1110.99 388.36C1107.93 412.922 1089.78 434.007 1059.42 451.085C1029.06 468.159 986.567 481.186 934.972 489.648C831.787 506.571 692.299 505.223 540.979 481.582C389.658 457.941 255.179 416.492 160.084 368.596C112.534 344.647 74.8518 319.096 49.8336 293.369C24.8094 267.636 12.5083 241.785 15.5716 217.218M345.416 104.543L15.1686 217.168L15.5716 217.218M421.7 199.133V199.133C360.713 199.2 308.308 204.649 270.416 214.713C251.469 219.745 236.128 225.937 225.153 233.202C214.181 240.466 207.524 248.837 206.055 258.238C204.012 271.321 212.237 284.944 228.581 298.356C244.945 311.784 269.552 325.09 300.542 337.546C362.527 362.459 450.145 384.004 548.696 396.291C647.248 408.578 738.116 409.285 805.362 400.484C838.983 396.084 866.722 389.304 886.57 380.393C906.393 371.493 918.466 360.409 920.508 347.334C922.552 334.251 914.327 320.624 897.984 307.207C881.621 293.773 857.016 280.46 826.027 267.998C764.043 243.071 676.426 221.513 577.867 209.225C522.425 202.313 469.436 199.082 421.7 199.133Z" fill="#FF7B7B" stroke="#FF7B7B" stroke-width="0.812301"/>
<path d="M374.776 144.152L374.777 144.149C438.305 144.075 508.829 147.014 582.599 157.174C713.768 175.243 830.335 209.183 912.761 248.05C953.976 267.484 986.635 288.14 1008.32 308.645C1030.01 329.162 1040.64 349.452 1037.99 368.166C1035.35 386.878 1019.66 402.977 993.334 416.032C967.026 429.08 930.194 439.035 885.469 445.502C796.025 458.435 675.109 457.404 543.935 439.342C412.761 421.279 296.191 389.6 213.763 352.992C172.547 334.687 139.889 315.159 118.21 295.501C96.5196 275.832 85.8982 256.109 88.5441 237.398C90.4491 223.945 99.0933 211.395 113.592 200.124C128.089 188.854 148.408 178.89 173.582 170.61C223.927 154.049 293.615 144.247 374.776 144.152ZM375.351 148.113L374.946 148.113V148.117C322.114 148.217 254.899 158.102 200.176 174.017C172.745 181.995 148.433 191.493 130.639 202.046C121.741 207.323 114.459 212.872 109.232 218.638C104.004 224.404 100.812 230.408 100.14 236.589L100.543 236.633L100.14 236.589C98.2241 254.215 110.264 273.314 132.708 292.437C155.176 311.581 188.174 330.84 228.432 348.787C308.951 384.685 418.588 415.371 531.316 429.389C616.617 439.996 735.069 445.084 834.632 437.661C884.411 433.95 929.49 427.109 963.35 416.257C980.28 410.831 994.424 404.396 1004.95 396.833C1015.48 389.27 1022.42 380.558 1024.88 370.577C1027.3 360.744 1024.85 350.415 1018.44 339.861C1012.03 329.311 1001.65 318.506 988.145 307.688C961.141 286.053 921.583 264.307 876.111 244.409C785.165 204.612 670.468 172.164 585.004 162.769C536.957 157.487 416.738 148.074 375.351 148.113Z" fill="#FF7B7B" stroke="#FF7B7B" stroke-width="0.812301"/>
<path d="M1096.51 388.353C1082.42 479.707 831.257 515.05 535.503 467.287C239.75 419.523 11.4161 306.747 25.4997 215.387C39.5833 124.027 290.749 88.6893 586.503 136.453C882.256 184.217 1110.59 296.992 1096.51 388.353Z" stroke="#FF7B7B" stroke-width="1.00002"/>
</g>
<path d="M813.25 343.54C772.791 481.423 628.523 560.003 491.028 519.037C371.199 483.344 293.483 367.118 306.09 242.445L564.289 269.38L813.25 343.54Z" fill="#FF7B7B"/>
<g style="mix-blend-mode:difference">
<circle cx="166" cy="192.998" r="22" fill="#FF7B7B"/>
</g>
</mask>
<g mask="url(#mask0)">
<rect y="-1.00195" width="1121" height="539" fill="white"/>
<path d="M824.161 277.493C819.798 421.253 700.122 533.941 556.852 529.193C413.582 524.444 300.979 404.054 305.342 260.297C309.705 116.541 429.381 3.84927 572.652 8.59774C715.922 13.3462 828.524 133.736 824.161 277.493V277.493Z" fill="#FF7B7B"/>
<g style="mix-blend-mode:difference">
<path d="M345.416 104.543C251.952 104.698 171.704 115.166 113.706 134.453C84.6649 144.11 61.2231 155.972 44.495 169.841C27.7703 183.707 17.7745 199.562 15.5716 217.218M345.416 104.543L15.5716 217.218M345.416 104.543V104.554L345.822 104.553C419.107 104.456 500.468 110.656 585.585 123.951C736.905 147.584 871.386 189.044 966.482 236.953C1014.03 260.909 1051.71 286.467 1076.73 312.2C1101.76 337.938 1114.06 363.793 1110.99 388.36C1107.93 412.922 1089.78 434.007 1059.42 451.085C1029.06 468.159 986.567 481.186 934.972 489.648C831.787 506.571 692.299 505.223 540.979 481.582C389.658 457.941 255.179 416.492 160.084 368.596C112.534 344.647 74.8518 319.096 49.8336 293.369C24.8094 267.636 12.5083 241.785 15.5716 217.218M345.416 104.543L15.1686 217.168L15.5716 217.218M421.7 199.133V199.133C360.713 199.2 308.308 204.649 270.416 214.713C251.469 219.745 236.128 225.937 225.153 233.202C214.181 240.466 207.524 248.837 206.055 258.238C204.012 271.321 212.237 284.944 228.581 298.356C244.945 311.784 269.552 325.09 300.542 337.546C362.527 362.459 450.145 384.004 548.696 396.291C647.248 408.578 738.116 409.285 805.362 400.484C838.983 396.084 866.722 389.304 886.57 380.393C906.393 371.493 918.466 360.409 920.508 347.334C922.552 334.251 914.327 320.624 897.984 307.207C881.621 293.773 857.016 280.46 826.027 267.998C764.043 243.071 676.426 221.513 577.867 209.225C522.425 202.313 469.436 199.082 421.7 199.133Z" fill="#FF7B7B" stroke="#FF7B7B" stroke-width="0.812301"/>
<path d="M374.776 144.152L374.777 144.149C438.305 144.075 508.829 147.014 582.599 157.174C713.768 175.243 830.335 209.183 912.761 248.05C953.976 267.484 986.635 288.14 1008.32 308.645C1030.01 329.162 1040.64 349.452 1037.99 368.166C1035.35 386.878 1019.66 402.977 993.334 416.032C967.026 429.08 930.194 439.035 885.469 445.502C796.025 458.435 675.109 457.404 543.935 439.342C412.761 421.279 296.191 389.6 213.763 352.992C172.547 334.687 139.889 315.159 118.21 295.501C96.5196 275.832 85.8982 256.109 88.5441 237.398C90.4491 223.945 99.0933 211.395 113.592 200.124C128.089 188.854 148.408 178.89 173.582 170.61C223.927 154.049 293.615 144.247 374.776 144.152ZM375.351 148.113L374.946 148.113V148.117C322.114 148.217 254.899 158.102 200.176 174.017C172.745 181.995 148.433 191.493 130.639 202.046C121.741 207.323 114.459 212.872 109.232 218.638C104.004 224.404 100.812 230.408 100.14 236.589L100.543 236.633L100.14 236.589C98.2241 254.215 110.264 273.314 132.708 292.437C155.176 311.581 188.174 330.84 228.432 348.787C308.951 384.685 418.588 415.371 531.316 429.389C616.617 439.996 735.069 445.084 834.632 437.661C884.411 433.95 929.49 427.109 963.35 416.257C980.28 410.831 994.424 404.396 1004.95 396.833C1015.48 389.27 1022.42 380.558 1024.88 370.577C1027.3 360.744 1024.85 350.415 1018.44 339.861C1012.03 329.311 1001.65 318.506 988.145 307.688C961.141 286.053 921.583 264.307 876.111 244.409C785.165 204.612 670.468 172.164 585.004 162.769C536.957 157.487 416.738 148.074 375.351 148.113Z" fill="#FF7B7B" stroke="#FF7B7B" stroke-width="0.812301"/>
<path d="M1096.51 388.353C1082.42 479.707 831.257 515.05 535.503 467.287C239.75 419.523 11.4161 306.747 25.4997 215.387C39.5833 124.027 290.749 88.6893 586.503 136.453C882.256 184.217 1110.59 296.992 1096.51 388.353Z" stroke="#FF7B7B" stroke-width="1.00002"/>
</g>
<path d="M813.25 343.54C772.791 481.423 628.523 560.003 491.028 519.037C371.199 483.344 293.483 367.118 306.09 242.445L564.289 269.38L813.25 343.54Z" fill="#FF7B7B"/>
<g style="mix-blend-mode:difference">
<circle cx="166" cy="192.998" r="22" fill="#FF7B7B"/>
</g>
</g>
</svg>
